<?xml version="1.0" encoding="UTF-8" standalone="no"?>
<!-- Uploaded to: SVG Repo, www.svgrepo.com, Generator: SVG Repo Mixer Tools -->

<svg
   height="800px"
   width="800px"
   version="1.1"
   id="Layer_1"
   viewBox="0 0 512.016 512.016"
   xml:space="preserve"
   sodipodi:docname="nmssupport.svg"
   inkscape:version="1.3 (0e150ed6c4, 2023-07-21)"
   xmlns:inkscape="http://www.inkscape.org/namespaces/inkscape"
   xmlns:sodipodi="http://sodipodi.sourceforge.net/DTD/sodipodi-0.dtd"
   xmlns="http://www.w3.org/2000/svg"
   xmlns:svg="http://www.w3.org/2000/svg"><defs
   id="defs10" /><sodipodi:namedview
   id="namedview10"
   pagecolor="#ffffff"
   bordercolor="#000000"
   borderopacity="0.25"
   inkscape:showpageshadow="2"
   inkscape:pageopacity="0.0"
   inkscape:pagecheckerboard="0"
   inkscape:deskcolor="#d1d1d1"
   inkscape:zoom="0.799375"
   inkscape:cx="104.45661"
   inkscape:cy="430.96169"
   inkscape:window-width="1920"
   inkscape:window-height="974"
   inkscape:window-x="-11"
   inkscape:window-y="1609"
   inkscape:window-maximized="1"
   inkscape:current-layer="Layer_1" />&#10;<path
   style="fill:#FFCE54;"
   d="M17.25,493.132c3.625-10.188,8.344-23.141,13.625-36.563c19.875-50.642,30.407-65.782,34.938-70.298  c6.781-6.797,15.188-11.375,24.313-13.266l3.156-0.656l35.344-35.75l42.312,48.875l-32.906,31.516l-0.688,3.235  c-1.875,9.125-6.469,17.531-13.25,24.344c-4.531,4.5-19.656,15.062-70.282,34.923C40.376,484.757,27.406,489.507,17.25,493.132z"
   id="path1" />&#10;<path
   style="fill:#F6BB42;"
   d="M129.158,320.943L87.97,362.584c-10.719,2.219-21.126,7.609-29.688,16.172  C36.407,400.63,0,510.366,0,510.366s109.72-36.391,131.626-58.282c8.531-8.547,13.938-18.969,16.156-29.703l37.812-36.22  L129.158,320.943z M133.064,407.005l-4.781,4.594l-1.344,6.484c-1.469,7.079-5.062,13.642-10.375,18.954  c-1.75,1.75-13.219,11.578-66.563,32.517c-5.094,1.984-10.094,3.906-14.906,5.703c1.812-4.812,3.719-9.812,5.719-14.876  c20.938-53.36,30.75-64.829,32.531-66.579c5.313-5.328,11.876-8.906,18.938-10.359l6.312-1.312l4.531-4.578l24.969-25.281  l28.156,32.516L133.064,407.005z"
   id="path2" />&#10;<g
   id="g4">&#10;	<path
   style="fill:#DA4453;"
   d="M199.909,423.397c5.969-2.797,11.938-5.767,17.875-8.876l121.501-86.781   c4.969-4.641,9.875-9.391,14.719-14.203c2.781-2.812,5.563-5.625,8.282-8.469c-0.469,55.359-25.845,115.923-74.032,164.127   c-16.062,16.047-33.469,29.562-51.625,40.484c-0.125,0.078-0.845,0.5-0.845,0.5c-4.031,2.188-9.188,1.578-12.594-1.828   c-1.125-1.141-1.938-2.469-2.438-3.875c0,0-0.375-1.109-0.469-1.594l-21.938-78.767   C198.878,423.881,199.378,423.631,199.909,423.397z"
   id="path3" />&#10;	<path
   style="fill:#DA4453;"
   d="M207.534,150.269c-2.844,2.734-5.656,5.516-8.469,8.312c-4.813,4.828-9.563,9.734-14.188,14.703   c-21.281,3-86.812,121.517-86.812,121.517c-3.094,5.938-6.062,11.892-8.875,17.876c-0.25,0.516-0.469,1.031-0.719,1.547   L9.688,292.285c-0.469-0.094-1.594-0.469-1.594-0.469c-1.406-0.5-2.719-1.312-3.875-2.453c-3.406-3.406-4-8.547-1.812-12.594   c0,0,0.406-0.703,0.5-0.828c10.906-18.157,24.406-35.563,40.469-51.625C91.595,176.097,152.158,150.722,207.534,150.269z"
   id="path4" />&#10;</g>&#10;<path
   style="fill:#E6E9ED;"
   d="M197.003,151.05c-60.408,60.422-103.97,129.438-128.252,196.299  c-1.281,3.75-0.469,8.031,2.531,11.016l82.907,82.938c3,2.969,7.281,3.797,11.031,2.516  c66.876-24.282,135.877-67.829,196.285-128.251c93.876-93.845,146.563-207.081,150.501-303.645c0.125-2.875-0.906-6.047-3.094-8.25  c-2.219-2.203-5.375-3.234-8.281-3.109C404.069,4.501,290.848,57.205,197.003,151.05z"
   id="path5" /><path
   fill="#ff0000"
   fill-rule="evenodd"
   d="m 190.82291,360.60421 c -13.40204,13.64067 -34.30954,15.48467 -46.7059,4.0847 -12.39639,-11.40002 -11.58817,-31.7278 1.81385,-45.36847 l 28.21773,-28.72018 c 13.40574,-13.64445 34.34133,-15.44765 46.73772,-4.04763 12.39635,11.39997 11.56005,31.68696 -1.84569,45.3314 z m 19.67212,-35.36282 c 8.6829,-8.83751 9.23029,-21.95852 1.20492,-29.33884 -8.0254,-7.38035 -21.57823,-6.21945 -30.26112,2.61807 l -26.96639,27.44656 c -8.67888,8.83341 -9.19448,21.99145 -1.16908,29.3718 8.02537,7.38033 21.54642,6.18238 30.22529,-2.65103 z"
   id="path1-2"
   style="stroke-width:4.67068"
   inkscape:transform-center-x="0.56549185"
   inkscape:transform-center-y="0.28165196" />&#10;&#10;&#10;<path
   style="fill:#DA4453;"
   d="M479.225,145.816L366.755,33.361c45.813-19.922,91.47-31.063,133.876-32.797  c2.906-0.125,6.062,0.906,8.281,3.109c2.188,2.203,3.219,5.375,3.094,8.25C510.287,54.361,499.131,100.003,479.225,145.816z"
   id="path10" />&#10;<text
   xml:space="preserve"
   style="font-style:normal;font-variant:normal;font-weight:normal;font-stretch:normal;font-size:7.68024px;font-family:Calibri;-inkscape-font-specification:'Calibri, Normal';font-variant-ligatures:normal;font-variant-caps:normal;font-variant-numeric:normal;font-variant-east-asian:normal;white-space:pre;inline-size:17.6858;display:inline;fill:#51696b;fill-opacity:0.582589;stroke-width:0.641025"
   x="148.92099"
   y="322.66214"
   id="text10"
   transform="matrix(12.233742,-11.408184,9.6838085,10.674194,-4694.9878,-1436.4386)"><tspan
     x="148.92099"
     y="322.66214"
     id="tspan2"><tspan
       style="stroke-width:0.641028"
       id="tspan1">NMS</tspan></tspan></text></svg>
